<svg xmlns="http://www.w3.org/2000/svg" xmlns:xlink="http://www.w3.org/1999/xlink" width="45px" height="43px" viewBox="0 0 44 43"><defs><clipPath id="clip1"><path d="M 0 2.746094 L 44 2.746094 L 44 22.96875 L 0 22.96875 Z M 0 2.746094 "></path></clipPath><linearGradient id="linear0" gradientUnits="userSpaceOnUse" x1="0" y1="1.985" x2="0.01" y2="1.985" gradientTransform="matrix(44,0,0,20.222656,0,2.746094)"><stop offset="0" style="stop-color:rgb(97.647059%,81.960784%,63.921569%);stop-opacity:1;"></stop><stop offset="1" style="stop-color:rgb(73.72549%,58.823529%,29.019608%);stop-opacity:1;"></stop></linearGradient><clipPath id="clip2"><path d="M 2 24 L 43 24 L 43 42.863281 L 2 42.863281 Z M 2 24 "></path></clipPath></defs><g id="surface1"><g clip-path="url(#clip1)" clip-rule="nonzero"><path style=" stroke:none;fill-rule:nonzero;fill:url(#linear0);" d="M 0 2.746094 L 44 2.746094 L 44 22.96875 L 0 22.96875 Z M 0 2.746094 "></path></g><path style=" stroke:none;fill-rule:nonzero;fill:rgb(100%,100%,100%);fill-opacity:1;" d="M 2.058594 2.746094 L 42.214844 2.746094 L 42.214844 22.96875 L 2.058594 22.96875 Z M 2.058594 2.746094 "></path><path style=" stroke:none;fill-rule:nonzero;fill:rgb(100%,100%,100%);fill-opacity:1;" d="M 22.089844 33.941406 L 22.089844 4.019531 C 22.085938 2.277344 20.683594 0.867188 18.949219 0.867188 L 2.917969 0.867188 L 2.917969 22.925781 "></path><path style=" stroke:none;fill-rule:nonzero;fill:rgb(12.156863%,16.470589%,26.666668%);fill-opacity:1;" d="M 22.953125 33.941406 L 21.222656 33.941406 L 21.222656 4.019531 C 21.222656 2.757812 20.203125 1.738281 18.949219 1.738281 L 3.78125 1.738281 L 3.78125 22.925781 L 2.050781 22.925781 L 2.050781 0 L 18.949219 0 C 21.160156 0.00390625 22.949219 1.800781 22.953125 4.019531 Z M 22.953125 33.941406 "></path><path style=" stroke:none;fill-rule:nonzero;fill:rgb(100%,100%,100%);fill-opacity:1;" d="M 22.171875 33.941406 L 22.171875 4.019531 C 22.175781 2.277344 23.578125 0.871094 25.3125 0.867188 L 41.34375 0.867188 L 41.34375 22.925781 "></path><path style=" stroke:none;fill-rule:nonzero;fill:rgb(12.156863%,16.470589%,26.666668%);fill-opacity:1;" d="M 23.042969 33.941406 L 21.3125 33.941406 L 21.3125 4.019531 C 21.3125 1.800781 23.101562 0.00390625 25.3125 0 L 42.210938 0 L 42.210938 22.925781 L 40.480469 22.925781 L 40.480469 1.738281 L 25.3125 1.738281 C 24.058594 1.742188 23.042969 2.761719 23.042969 4.019531 Z M 23.042969 33.941406 "></path><path style=" stroke:none;fill-rule:nonzero;fill:rgb(12.156863%,16.470589%,26.666668%);fill-opacity:1;" d="M 6.105469 4.664062 L 13.570312 4.664062 L 13.570312 6.398438 L 6.105469 6.398438 Z M 6.105469 4.664062 "></path><path style=" stroke:none;fill-rule:nonzero;fill:rgb(12.156863%,16.470589%,26.666668%);fill-opacity:1;" d="M 6.105469 8.742188 L 18.675781 8.742188 L 18.675781 10.480469 L 6.105469 10.480469 Z M 6.105469 8.742188 "></path><path style=" stroke:none;fill-rule:nonzero;fill:rgb(12.156863%,16.470589%,26.666668%);fill-opacity:1;" d="M 6.105469 12.757812 L 18.675781 12.757812 L 18.675781 14.492188 L 6.105469 14.492188 Z M 6.105469 12.757812 "></path><path style=" stroke:none;fill-rule:nonzero;fill:rgb(12.156863%,16.470589%,26.666668%);fill-opacity:1;" d="M 6.105469 16.769531 L 18.675781 16.769531 L 18.675781 18.507812 L 6.105469 18.507812 Z M 6.105469 16.769531 "></path><path style=" stroke:none;fill-rule:nonzero;fill:rgb(12.156863%,16.470589%,26.666668%);fill-opacity:1;" d="M 6.105469 20.785156 L 18.675781 20.785156 L 18.675781 22.523438 L 6.105469 22.523438 Z M 6.105469 20.785156 "></path><path style=" stroke:none;fill-rule:nonzero;fill:rgb(12.156863%,16.470589%,26.666668%);fill-opacity:1;" d="M 25.109375 20.785156 L 37.679688 20.785156 L 37.679688 22.523438 L 25.109375 22.523438 Z M 25.109375 20.785156 "></path><path style=" stroke:none;fill-rule:nonzero;fill:rgb(51.764709%,73.725492%,73.333335%);fill-opacity:1;" d="M 25.117188 8.695312 L 37.679688 8.695312 L 37.679688 18.472656 L 25.117188 18.472656 Z M 25.117188 8.695312 "></path><path style=" stroke:none;fill-rule:nonzero;fill:rgb(100%,100%,100%);fill-opacity:1;" d="M 3.789062 25.394531 L 40.519531 25.394531 C 40.984375 25.394531 41.359375 25.773438 41.359375 26.238281 L 41.359375 41.152344 C 41.359375 41.617188 40.984375 41.996094 40.519531 41.996094 L 3.789062 41.996094 C 3.328125 41.996094 2.949219 41.617188 2.949219 41.152344 L 2.949219 26.238281 C 2.949219 25.773438 3.328125 25.394531 3.789062 25.394531 Z M 3.789062 25.394531 "></path><g clip-path="url(#clip2)" clip-rule="nonzero"><path style=" stroke:none;fill-rule:nonzero;fill:rgb(12.156863%,16.470589%,26.666668%);fill-opacity:1;" d="M 40.738281 42.863281 L 3.570312 42.863281 C 2.75 42.863281 2.085938 42.195312 2.085938 41.375 L 2.085938 26.015625 C 2.085938 25.195312 2.75 24.527344 3.570312 24.527344 L 40.738281 24.527344 C 41.558594 24.527344 42.222656 25.195312 42.226562 26.015625 L 42.226562 41.375 C 42.222656 42.199219 41.558594 42.863281 40.738281 42.863281 M 3.816406 41.125 L 40.492188 41.125 L 40.492188 26.265625 L 3.816406 26.265625 Z M 3.816406 41.125 "></path></g><path style=" stroke:none;fill-rule:nonzero;fill:rgb(51.764709%,73.725492%,73.333335%);fill-opacity:1;" d="M 6.078125 28.761719 L 8.992188 28.761719 L 8.992188 30.5 L 6.078125 30.5 Z M 6.078125 28.761719 "></path><path style=" stroke:none;fill-rule:nonzero;fill:rgb(51.764709%,73.725492%,73.333335%);fill-opacity:1;" d="M 10.953125 28.761719 L 13.867188 28.761719 L 13.867188 30.5 L 10.953125 30.5 Z M 10.953125 28.761719 "></path><path style=" stroke:none;fill-rule:nonzero;fill:rgb(51.764709%,73.725492%,73.333335%);fill-opacity:1;" d="M 15.824219 28.761719 L 18.738281 28.761719 L 18.738281 30.5 L 15.824219 30.5 Z M 15.824219 28.761719 "></path><path style=" stroke:none;fill-rule:nonzero;fill:rgb(51.764709%,73.725492%,73.333335%);fill-opacity:1;" d="M 20.699219 28.761719 L 23.613281 28.761719 L 23.613281 30.5 L 20.699219 30.5 Z M 20.699219 28.761719 "></path><path style=" stroke:none;fill-rule:nonzero;fill:rgb(51.764709%,73.725492%,73.333335%);fill-opacity:1;" d="M 25.574219 28.761719 L 28.484375 28.761719 L 28.484375 30.5 L 25.574219 30.5 Z M 25.574219 28.761719 "></path><path style=" stroke:none;fill-rule:nonzero;fill:rgb(51.764709%,73.725492%,73.333335%);fill-opacity:1;" d="M 30.445312 28.761719 L 33.359375 28.761719 L 33.359375 30.5 L 30.445312 30.5 Z M 30.445312 28.761719 "></path><path style=" stroke:none;fill-rule:nonzero;fill:rgb(51.764709%,73.725492%,73.333335%);fill-opacity:1;" d="M 35.320312 28.761719 L 38.230469 28.761719 L 38.230469 30.5 L 35.320312 30.5 Z M 35.320312 28.761719 "></path><path style=" stroke:none;fill-rule:nonzero;fill:rgb(51.764709%,73.725492%,73.333335%);fill-opacity:1;" d="M 6.078125 32.828125 L 8.992188 32.828125 L 8.992188 34.566406 L 6.078125 34.566406 Z M 6.078125 32.828125 "></path><path style=" stroke:none;fill-rule:nonzero;fill:rgb(51.764709%,73.725492%,73.333335%);fill-opacity:1;" d="M 10.953125 32.828125 L 13.867188 32.828125 L 13.867188 34.566406 L 10.953125 34.566406 Z M 10.953125 32.828125 "></path><path style=" stroke:none;fill-rule:nonzero;fill:rgb(51.764709%,73.725492%,73.333335%);fill-opacity:1;" d="M 15.824219 32.828125 L 18.738281 32.828125 L 18.738281 34.566406 L 15.824219 34.566406 Z M 15.824219 32.828125 "></path><path style=" stroke:none;fill-rule:nonzero;fill:rgb(51.764709%,73.725492%,73.333335%);fill-opacity:1;" d="M 20.699219 32.828125 L 23.613281 32.828125 L 23.613281 34.566406 L 20.699219 34.566406 Z M 20.699219 32.828125 "></path><path style=" stroke:none;fill-rule:nonzero;fill:rgb(51.764709%,73.725492%,73.333335%);fill-opacity:1;" d="M 25.574219 32.828125 L 28.484375 32.828125 L 28.484375 34.566406 L 25.574219 34.566406 Z M 25.574219 32.828125 "></path><path style=" stroke:none;fill-rule:nonzero;fill:rgb(51.764709%,73.725492%,73.333335%);fill-opacity:1;" d="M 30.445312 32.828125 L 33.359375 32.828125 L 33.359375 34.566406 L 30.445312 34.566406 Z M 30.445312 32.828125 "></path><path style=" stroke:none;fill-rule:nonzero;fill:rgb(51.764709%,73.725492%,73.333335%);fill-opacity:1;" d="M 35.320312 32.828125 L 38.230469 32.828125 L 38.230469 34.566406 L 35.320312 34.566406 Z M 35.320312 32.828125 "></path><path style=" stroke:none;fill-rule:nonzero;fill:rgb(51.764709%,73.725492%,73.333335%);fill-opacity:1;" d="M 6.078125 36.894531 L 8.992188 36.894531 L 8.992188 38.632812 L 6.078125 38.632812 Z M 6.078125 36.894531 "></path><path style=" stroke:none;fill-rule:nonzero;fill:rgb(51.764709%,73.725492%,73.333335%);fill-opacity:1;" d="M 10.953125 36.894531 L 13.867188 36.894531 L 13.867188 38.632812 L 10.953125 38.632812 Z M 10.953125 36.894531 "></path><path style=" stroke:none;fill-rule:nonzero;fill:rgb(51.764709%,73.725492%,73.333335%);fill-opacity:1;" d="M 15.824219 36.894531 L 33.402344 36.894531 L 33.402344 38.632812 L 15.824219 38.632812 Z M 15.824219 36.894531 "></path><path style=" stroke:none;fill-rule:nonzero;fill:rgb(51.764709%,73.725492%,73.333335%);fill-opacity:1;" d="M 35.320312 36.894531 L 38.230469 36.894531 L 38.230469 38.632812 L 35.320312 38.632812 Z M 35.320312 36.894531 "></path><path style=" stroke:none;fill-rule:nonzero;fill:rgb(100%,100%,100%);fill-opacity:1;" d="M 33.152344 13.761719 L 30.308594 15.410156 L 30.308594 12.113281 Z M 33.152344 13.761719 "></path></g></svg>