<svg xmlns="http://www.w3.org/2000/svg" xmlns:xlink="http://www.w3.org/1999/xlink" id="Layer_2" data-name="Layer 2" viewBox="0 0 619.08 128.72"><defs><style> .cls-1 { fill: none; } .cls-1, .cls-2, .cls-3, .cls-4 { stroke-width: 0px; } .cls-2 { fill: url(#linear-gradient); } .cls-3 { fill: #84bcbb; } .cls-4 { fill: #fff; } </style><linearGradient id="linear-gradient" x1="14.54" y1="64.36" x2="114.18" y2="64.36" gradientUnits="userSpaceOnUse"><stop offset="0" stop-color="#f9d1a3"></stop><stop offset="1" stop-color="#bc964a"></stop></linearGradient></defs><g id="Layer_1-2" data-name="Layer 1"><g><rect class="cls-1" width="619.08" height="128.72"></rect><g><g><path class="cls-4" d="m182.05,35.43c-.5,1.24-1.15,2.34-1.96,3.29-.81.95-1.75,1.77-2.83,2.45-1.08.68-2.17,1.23-3.29,1.65-1.16.41-2.4.73-3.73.93-1.33.21-2.66.36-4.01.47-1.35.1-2.66.16-3.95.16h-3.36v5.84c0,.71,0,1.36.03,1.96.02.6.03,1.25.03,1.96.04,1.33.08,2.47.12,3.42.04.95.27,1.74.68,2.36.33.54.97,1.08,1.93,1.62.95.54,2.28.85,3.98.93v.62h-19.89v-.62c1.04-.17,2.03-.41,2.98-.75.95-.33,1.7-.83,2.24-1.49.21-.25.37-.62.5-1.12.12-.5.22-1.06.28-1.68.06-.62.11-1.28.16-1.99.04-.7.06-1.39.06-2.05,0-.58,0-1.37.03-2.36.02-.99.04-2.08.06-3.26.02-1.18.03-2.39.03-3.63v-15.72c0-.75-.01-1.5-.03-2.27-.02-.77-.06-1.49-.12-2.18s-.17-1.3-.31-1.86c-.15-.56-.34-.96-.59-1.21-.62-.66-1.42-1.11-2.39-1.34-.97-.23-2.02-.42-3.14-.59v-.62h1.49c.79,0,1.71,0,2.77-.03,1.06-.02,2.21-.03,3.45-.03s2.47,0,3.7-.03c1.22-.02,2.37-.03,3.45-.03h2.8c2.73,0,5.16.13,7.27.4,2.11.27,4.1.92,5.97,1.96,1.82.99,3.33,2.4,4.54,4.23,1.2,1.82,1.8,3.98,1.8,6.46,0,1.53-.25,2.92-.75,4.16Zm-7.8-10.87c-1.22-1.86-2.83-3.27-4.82-4.23-.99-.46-2.05-.77-3.17-.93-1.12-.17-2.28-.25-3.48-.25-.87,0-1.54.03-2.02.09-.48.06-.86.11-1.15.16-.04.25-.09.47-.16.65-.06.19-.11.43-.16.72-.04.29-.08.69-.12,1.21-.04.52-.08,1.25-.12,2.21-.04,1.45-.07,3.21-.09,5.28-.02,2.07-.03,4.1-.03,6.09v7.95c1.7,0,3.29-.05,4.79-.16,1.49-.1,2.88-.38,4.16-.84,2.65-.91,4.68-2.41,6.09-4.51,1.41-2.09,2.11-4.44,2.11-7.05,0-2.4-.61-4.54-1.83-6.4Z"></path><path class="cls-4" d="m224.06,63.08v-.62c.12,0,.42-.04.9-.12.48-.08.97-.23,1.49-.43.52-.21.97-.5,1.37-.87.39-.37.59-.85.59-1.43,0-.37-.11-.98-.34-1.83-.23-.85-.55-1.88-.96-3.11-.41-1.22-.89-2.58-1.43-4.07-.54-1.49-1.12-3.04-1.74-4.66h-16.53c-.62,1.57-1.22,3.08-1.8,4.51-.58,1.43-1.16,2.87-1.74,4.32-.87,2.24-1.3,3.81-1.3,4.72,0,.54.17.98.5,1.34.33.35.76.64,1.27.87.52.23,1.08.39,1.68.5.6.1,1.17.2,1.71.28v.62h-13.24v-.68c1.08-.12,2-.41,2.77-.87.77-.46,1.21-.77,1.34-.93.29-.29.77-.97,1.43-2.05.66-1.08,1.47-2.67,2.42-4.78.87-1.95,1.84-4.16,2.92-6.65,1.08-2.49,2.18-5.04,3.32-7.67,1.14-2.63,2.27-5.28,3.39-7.95,1.12-2.67,2.17-5.17,3.17-7.49l-.62-1.37c.75-.33,1.42-.72,2.02-1.18.6-.45,1.13-.93,1.58-1.43.46-.5.84-.97,1.15-1.43.31-.46.55-.83.71-1.12h.5c1.28,3.44,2.51,6.7,3.67,9.79,1.16,3.09,2.27,6.06,3.32,8.92,1.06,2.86,2.08,5.62,3.08,8.3.99,2.67,1.99,5.31,2.98,7.92.46,1.28.88,2.35,1.27,3.2.39.85.84,1.81,1.34,2.89.08.17.27.46.56.87.29.41.67.84,1.15,1.27.48.44,1.07.82,1.77,1.15.7.33,1.53.52,2.49.56v.75h-18.15Zm-8.14-37.66c-.25.54-.61,1.39-1.09,2.55-.48,1.16-1.07,2.57-1.77,4.23-.71,1.66-1.48,3.53-2.33,5.62-.85,2.09-1.77,4.36-2.77,6.8h15.47c-.7-1.86-1.42-3.73-2.14-5.59-.72-1.86-1.43-3.66-2.11-5.38-.68-1.72-1.3-3.29-1.86-4.72-.56-1.43-1.03-2.6-1.4-3.51Z"></path><path class="cls-4" d="m294.65,63.08h-39.89v-.62c1.03-.17,2.06-.44,3.08-.81,1.01-.37,1.81-.89,2.39-1.55.21-.25.38-.61.53-1.09.14-.48.26-1.03.34-1.65.08-.62.16-1.27.22-1.96s.09-1.36.09-2.02c0-.58,0-1.37.03-2.36.02-.99.04-2.08.06-3.26.02-1.18.03-2.39.03-3.63v-17.83c0-.75-.03-1.44-.09-2.08-.06-.64-.16-1.21-.28-1.71-.12-.5-.31-.89-.56-1.18-.58-.7-1.36-1.24-2.33-1.62-.97-.37-2-.62-3.08-.75v-.62h19.82v.62c-.54.08-1.18.21-1.93.37-.75.17-1.45.44-2.11.81-.66.37-1.23.9-1.71,1.58-.48.68-.74,1.58-.78,2.7-.04,1.45-.07,2.78-.09,3.98-.02,1.2-.04,2.38-.06,3.54-.02,1.16-.03,2.36-.03,3.6v11.31c0,1.08,0,2.19.03,3.32.02,1.14.03,2.41.03,3.82.04,1.33.09,2.59.16,3.79.06,1.2.28,2.09.65,2.67.16.21.5.41.99.62.5.21,1.1.38,1.8.53.7.15,1.47.27,2.3.37.83.1,1.66.16,2.49.16.33,0,.86,0,1.58-.03.72-.02,1.52-.06,2.39-.12.87-.06,1.76-.16,2.67-.28.91-.12,1.72-.29,2.42-.5,1.66-.46,3.03-1.06,4.13-1.8,1.1-.75,2.04-1.61,2.83-2.58.79-.97,1.45-2.03,1.99-3.17.54-1.14,1.06-2.33,1.55-3.57l.62.19-2.3,12.8Z"></path><path class="cls-4" d="m347.34,63.08v-.68c1.78-.08,3.27-.46,4.47-1.12,1.2-.66,2.01-1.43,2.42-2.3.25-.54.43-1.21.56-2.02.12-.81.21-1.63.25-2.45.08-2.73.12-5.34.12-7.83v-25.29c-1.37,3.07-2.62,5.88-3.76,8.45-1.14,2.57-2.27,5.07-3.39,7.52-1.12,2.44-2.25,4.94-3.39,7.49-1.14,2.55-2.39,5.35-3.76,8.42-.21.41-.5,1.07-.87,1.96-.37.89-.75,1.8-1.12,2.73-.37.93-.72,1.78-1.06,2.55-.33.77-.54,1.27-.62,1.52h-.37c-1.33-3.07-2.64-6.11-3.95-9.13-1.3-3.02-2.58-5.93-3.82-8.73-1.24-2.8-2.4-5.42-3.48-7.86-1.08-2.44-2.05-4.62-2.92-6.52-.87-1.91-1.58-3.5-2.14-4.78-.56-1.28-.94-2.15-1.15-2.61,0,2.73-.01,5.15-.03,7.24-.02,2.09-.04,4.16-.06,6.21-.02,2.05-.03,4.22-.03,6.49v7.95c0,1.95.06,3.64.19,5.06.12,1.43.44,2.63.93,3.6.5.97,1.25,1.74,2.27,2.3,1.01.56,2.41.96,4.19,1.21v.62h-16.22v-.62c1.45-.29,2.63-.71,3.54-1.27.91-.56,1.64-1.34,2.18-2.33.54-.99.93-2.23,1.18-3.7.25-1.47.39-3.26.44-5.38.08-1.78.14-3.88.19-6.31.04-2.42.06-5.02.06-7.8v-7.83c0-.83-.02-1.84-.06-3.05-.04-1.16-.29-2.1-.75-2.83-.46-.72-.99-1.29-1.62-1.71-.62-.41-1.28-.71-1.99-.9-.7-.19-1.3-.32-1.8-.4v-.62h13.24l14.85,33.8c1.82-3.94,3.6-7.85,5.34-11.74,1.74-3.89,3.3-7.41,4.69-10.56,1.39-3.15,2.53-5.77,3.42-7.86.89-2.09,1.4-3.3,1.52-3.63h13.24v.62c-1.7.04-2.99.39-3.88,1.06-.89.66-1.5,1.45-1.83,2.36-.25.7-.41,1.8-.5,3.29-.08,1.49-.15,2.96-.19,4.41-.04,1.99-.06,3.91-.06,5.78v12.37c0,2.2.02,4.52.06,6.96,0,.79.05,1.58.16,2.39.1.81.28,1.44.53,1.9.04.08.2.28.47.59.27.31.65.64,1.15.99.5.35,1.12.66,1.86.93.75.27,1.62.43,2.61.47v.62h-21.31Z"></path><path class="cls-4" d="m423.65,63.08h-38.03v-.62c1.03-.17,2-.44,2.89-.81.89-.37,1.63-.89,2.21-1.55.21-.25.37-.61.5-1.09.12-.48.24-1.03.34-1.65.1-.62.18-1.27.22-1.96s.06-1.36.06-2.02c0-.58,0-1.37.03-2.36.02-.99.04-2.08.06-3.26.02-1.18.03-2.39.03-3.63v-15.72c0-.75-.01-1.51-.03-2.3-.02-.79-.06-1.53-.12-2.24-.06-.7-.17-1.34-.31-1.9-.15-.56-.34-.96-.59-1.21-.62-.66-1.28-1.09-1.99-1.27-.7-.19-1.62-.36-2.73-.53v-.62h34.3l4.23,10.25-.62.31c-3.36-4.18-6.5-7-9.45-8.45-.7-.33-2.01-.62-3.91-.87-1.91-.25-4.23-.37-6.96-.37-.87,0-1.77.03-2.7.09-.93.06-1.61.13-2.02.22-.08.66-.16,2.03-.22,4.1-.06,2.07-.09,4.47-.09,7.21v3.98c0,1.08,0,1.96.03,2.64s.03,1.21.03,1.58v.68h1.24c.62,0,1.34-.02,2.14-.06.81-.04,1.62-.09,2.42-.16.81-.06,1.48-.16,2.02-.28,1.24-.29,2.28-.68,3.11-1.18.83-.5,1.5-1.1,2.02-1.8.52-.7.93-1.52,1.24-2.45.31-.93.59-1.98.84-3.14h.75v19.57h-.75c-.33-1.33-.84-2.69-1.52-4.1-.68-1.41-1.4-2.46-2.14-3.17-.66-.58-1.46-1.06-2.39-1.43-.93-.37-2.02-.6-3.26-.68-.62-.04-1.14-.07-1.55-.09-.41-.02-.83-.03-1.24-.03h-2.86c-.08.58-.12,1.43-.12,2.55v7.46c0,.66,0,1.3.03,1.9.02.6.03,1.11.03,1.52.04,1.33.11,2.58.22,3.76.1,1.18.34,2.06.71,2.64.37.58,1.26.99,2.67,1.24,1.41.25,2.94.37,4.6.37.7,0,1.61-.02,2.7-.06,1.1-.04,2.25-.14,3.45-.31,1.33-.17,2.55-.49,3.67-.96,1.12-.48,2.2-1.15,3.23-2.02,1.03-.87,2.04-1.94,3.01-3.2.97-1.26,1.98-2.79,3.01-4.57l.68.19-3.11,11.87Z"></path><path class="cls-4" d="m485.73,30.02c-.33-.75-.73-1.52-1.18-2.33-.46-.81-.92-1.56-1.4-2.27-.48-.7-.94-1.36-1.4-1.96-.46-.6-.85-1.05-1.18-1.34-.87-.83-1.81-1.38-2.83-1.65-1.02-.27-2.31-.42-3.88-.47-.79,0-1.47,0-2.05-.03-.58-.02-1.16-.03-1.74-.03h-4.1c0,1.04-.01,2.44-.03,4.23-.02,1.78-.03,3.65-.03,5.59v24.3c0,1.2.03,2.35.09,3.45.06,1.1.26,1.87.59,2.33.62.91,1.5,1.53,2.64,1.86,1.14.33,2.16.58,3.08.75v.62h-20.2v-.62c1.08-.12,2.11-.33,3.11-.62.99-.29,1.97-.97,2.92-2.05.21-.21.36-.55.47-1.03.1-.48.19-1.01.25-1.62.06-.6.1-1.25.12-1.96.02-.7.03-1.39.03-2.05,0-.58,0-1.35.03-2.3.02-.95.04-2.01.06-3.17.02-1.16.03-2.36.03-3.6v-24.11h-4.1c-.54,0-1.11.01-1.71.03-.6.02-1.3.03-2.08.03-1.57.04-2.87.23-3.88.56-1.02.33-1.96.91-2.83,1.74-.33.29-.71.72-1.15,1.3-.43.58-.89,1.21-1.37,1.89-.48.68-.93,1.42-1.37,2.21-.44.79-.78,1.55-1.03,2.3l-.56-.19,1.86-11.81c.95.21,1.83.37,2.64.5.81.12,1.98.21,3.51.25,1.57.04,2.98.07,4.23.09,1.24.02,2.44.03,3.6.03h11.81c1.24,0,2.44,0,3.6-.03,1.16-.02,2.36-.04,3.6-.06,1.24-.02,2.65-.03,4.23-.03,1.37-.04,2.5-.16,3.39-.34.89-.19,1.81-.42,2.77-.71l1.99,12.12-.56.19Z"></path><path class="cls-4" d="m543.95,30.02c-.33-.75-.73-1.52-1.18-2.33-.46-.81-.92-1.56-1.4-2.27-.48-.7-.94-1.36-1.4-1.96-.46-.6-.85-1.05-1.18-1.34-.87-.83-1.81-1.38-2.83-1.65-1.02-.27-2.31-.42-3.88-.47-.79,0-1.47,0-2.05-.03-.58-.02-1.16-.03-1.74-.03h-4.1c0,1.04-.01,2.44-.03,4.23-.02,1.78-.03,3.65-.03,5.59v24.3c0,1.2.03,2.35.09,3.45.06,1.1.26,1.87.59,2.33.62.91,1.5,1.53,2.64,1.86,1.14.33,2.16.58,3.08.75v.62h-20.2v-.62c1.08-.12,2.11-.33,3.11-.62.99-.29,1.97-.97,2.92-2.05.21-.21.36-.55.47-1.03.1-.48.19-1.01.25-1.62.06-.6.1-1.25.12-1.96.02-.7.03-1.39.03-2.05,0-.58,0-1.35.03-2.3.02-.95.04-2.01.06-3.17.02-1.16.03-2.36.03-3.6v-24.11h-4.1c-.54,0-1.11.01-1.71.03-.6.02-1.3.03-2.08.03-1.57.04-2.87.23-3.88.56-1.02.33-1.96.91-2.83,1.74-.33.29-.71.72-1.15,1.3-.43.58-.89,1.21-1.37,1.89-.48.68-.93,1.42-1.37,2.21-.44.79-.78,1.55-1.03,2.3l-.56-.19,1.86-11.81c.95.21,1.83.37,2.64.5.81.12,1.98.21,3.51.25,1.57.04,2.98.07,4.23.09,1.24.02,2.44.03,3.6.03h11.81c1.24,0,2.44,0,3.6-.03,1.16-.02,2.36-.04,3.6-.06,1.24-.02,2.65-.03,4.23-.03,1.37-.04,2.5-.16,3.39-.34.89-.19,1.81-.42,2.77-.71l1.99,12.12-.56.19Z"></path><path class="cls-4" d="m602.67,49.59c-1.24,2.82-2.93,5.26-5.06,7.33-2.13,2.07-4.62,3.67-7.46,4.78-2.84,1.12-5.85,1.68-9.04,1.68s-6.13-.55-8.95-1.65c-2.82-1.1-5.28-2.65-7.39-4.66-2.11-2.01-3.78-4.41-5-7.21-1.22-2.8-1.83-5.87-1.83-9.23,0-3.56.64-6.76,1.93-9.6,1.28-2.84,3.01-5.24,5.19-7.21,2.18-1.97,4.72-3.48,7.64-4.54,2.92-1.06,6-1.58,9.23-1.58,3.52,0,6.68.62,9.48,1.86,2.8,1.24,5.17,2.91,7.11,5,1.95,2.09,3.44,4.51,4.47,7.24,1.03,2.73,1.55,5.59,1.55,8.57,0,3.32-.62,6.38-1.86,9.2Zm-6.8-16.78c-.64-2.57-1.62-4.9-2.92-6.99-1.3-2.09-2.93-3.79-4.88-5.1-1.95-1.3-4.25-1.96-6.9-1.96s-5.02.65-6.99,1.96c-1.97,1.3-3.58,2.99-4.85,5.06-1.26,2.07-2.2,4.42-2.8,7.05-.6,2.63-.9,5.29-.9,7.98s.33,5.53.99,8.14c.66,2.61,1.65,4.91,2.95,6.9s2.94,3.58,4.91,4.78c1.97,1.2,4.26,1.8,6.87,1.8s4.88-.66,6.8-1.99c1.93-1.33,3.53-3.03,4.82-5.13,1.28-2.09,2.25-4.44,2.89-7.05.64-2.61.96-5.22.96-7.83s-.32-5.07-.96-7.64Z"></path></g><g><path class="cls-3" d="m189.89,108.43h-4.3v-19.7h6.69c4.96,0,7.76,2.27,7.76,6.29s-2.86,6.65-7.48,6.65h-2.67v6.76Zm1.85-10.1c2.48,0,3.93-1.12,3.93-3.1s-1.48-3.16-3.83-3.16h-1.95v6.26h1.85Z"></path><path class="cls-3" d="m230.42,100.28c0,1.83.25,2.84.94,3.6.63.74,1.76,1.21,2.92,1.21,1.23,0,2.42-.53,3.05-1.36.63-.8.82-1.65.82-3.49v-11.52h4.34v11.4c0,2.89-.66,4.9-2.07,6.38-1.41,1.48-3.61,2.3-6.06,2.3s-4.87-.89-6.35-2.45c-1.35-1.42-1.89-3.19-1.89-6.23v-11.4h4.3v11.55Z"></path><path class="cls-3" d="m276.86,88.73c2.58,0,4.24.35,5.34,1.12,1.29.92,2.01,2.42,2.01,4.17,0,1.36-.44,2.48-1.32,3.37-.6.56-1.07.83-2.2,1.18,1.26.27,1.82.5,2.48,1.06.97.83,1.51,2.04,1.51,3.54,0,1.83-.82,3.46-2.17,4.31-1.1.68-2.39.95-4.68.95h-7.73v-19.7h6.75Zm-2.45,8.36h1.73c2.55,0,3.74-.86,3.74-2.69,0-1-.5-1.86-1.26-2.22-.6-.27-1.48-.38-2.7-.38h-1.51v5.29Zm0,8.36h2.11c1.48,0,2.17-.12,2.8-.53.69-.44,1.04-1.15,1.04-2.1,0-1.06-.41-1.8-1.19-2.24-.66-.35-1.32-.47-2.89-.47h-1.85v5.35Z"></path><path class="cls-3" d="m322.95,105.09v3.34h-11.31v-19.7h4.3v16.36h7.01Z"></path><path class="cls-3" d="m353.68,108.43h-4.3v-19.7h4.3v19.7Z"></path><path class="cls-3" d="m384.56,102.67v.27c0,1.33,1.23,2.3,2.86,2.3s2.76-.92,2.76-2.1c0-.62-.31-1.18-.85-1.57-.53-.38-.91-.53-2.54-1.09-4.59-1.54-6.22-3.16-6.22-6.17,0-3.57,2.8-5.97,6.91-5.97s6.72,2.24,7.07,6.03h-4.34c-.16-1.65-1.04-2.45-2.73-2.45-1.54,0-2.58.83-2.58,2.07,0,.8.44,1.42,1.29,1.86.57.3.91.44,2.45.98,2.29.8,3.46,1.36,4.37,2.19,1.1.97,1.67,2.3,1.67,3.81,0,3.6-2.89,6-7.23,6s-7.1-2.36-7.07-6.14h4.18Z"></path><path class="cls-3" d="m425.85,108.43h-4.3v-19.7h4.3v8.33h7.95v-8.33h4.3v19.7h-4.3v-8.06h-7.95v8.06Z"></path><path class="cls-3" d="m470.65,108.43h-4.3v-19.7h4.3v19.7Z"></path><path class="cls-3" d="m502.89,108.43h-4.3v-19.7h4.24l8.77,12.29v-12.29h4.3v19.7h-4.21l-8.8-12.47v12.47Z"></path><path class="cls-3" d="m564.53,97.38v1.06c0,3.04-.94,5.32-3.05,7.33-2.1,1.98-4.78,3.04-7.73,3.04-6.16,0-10.78-4.37-10.78-10.19s4.59-10.28,10.74-10.28c3.39,0,6.44,1.36,8.48,3.78l-3.24,2.39c-1.54-1.71-3.08-2.45-5.15-2.45-3.68,0-6.47,2.84-6.47,6.56s2.89,6.53,6.57,6.53c1.79,0,3.58-.74,4.68-1.98.63-.68.94-1.3,1.29-2.48h-5.84v-3.31h10.49Z"></path></g><path class="cls-2" d="m105.3,59.4l-2.51-5.54c-.08-.19-.23-.33-.42-.42-.16-.07-15.64-6.65-34.14,1.32,12.45-11.18,30.73-7.15,30.93-7.1.44.11.88-.18.99-.62.1-.44-.17-.88-.62-.99-.21-.05-20.16-4.47-33.26,8.28,5.99-16.04,28.47-14.89,28.72-14.87.47.07.84-.32.87-.77.03-.45-.32-.84-.77-.87-.23-.01-21.4-1.11-29.13,13.22,3.59-17.82,21.99-18.08,22.85-18.08.45,0,.82-.37.82-.82s-.37-.82-.82-.82c-.22,0-19.97.24-24.27,18.57-4.31-18.33-24.05-18.57-24.27-18.57-.45,0-.82.37-.82.82s.37.82.82.82c.86,0,19.28.23,22.85,18.09-7.73-14.34-28.9-13.25-29.14-13.23-.45.03-.8.42-.77.87.03.45.38.84.87.77.24-.01,22.73-1.18,28.72,14.88-13.1-12.75-33.05-8.33-33.26-8.28-.44.1-.72.54-.62.99.1.44.53.73.99.62.2-.05,18.48-4.1,30.93,7.1-18.5-7.97-33.98-1.39-34.14-1.32-.19.08-.34.23-.42.42l-2.51,5.54c-.14.32-.07.69.18.93.25.24.62.3.93.15.04-.02,3.87-1.81,14.13-2.18,12.06-.44,19.33,3.7,22.57,6.22.32.25.67.45,1.03.61l-.63,4.2,2.57-3.45,2.54,3.41-.62-4.15c.36-.16.71-.36,1.04-.61,3.24-2.51,10.51-6.63,22.57-6.22,10.26.37,14.09,2.16,14.13,2.18.31.15.68.09.93-.15.25-.24.32-.61.18-.93ZM64.36,14.54c-27.47,0-49.82,22.35-49.82,49.82s22.35,49.82,49.82,49.82,49.82-22.35,49.82-49.82S91.83,14.54,64.36,14.54Zm9.06,96.84l-.33-2.21-2.04-2.73-3.25,4.36-3.25-4.36-3.25,4.36-3.25-4.36-2.07,2.78-.34,2.23c-22.26-4.11-39.17-23.66-39.17-47.09,0-26.41,21.48-47.89,47.89-47.89s47.89,21.48,47.89,47.89c0,23.31-16.74,42.78-38.82,47.02Zm-13.44-28.83l1.31,1.76,3.25-4.36,3.25,4.36,1.29-1.73.73,4.83-2.01,2.7-3.25-4.36-3.25,4.36-2.04-2.73.73-4.83Zm.83-5.51l.48.65,3.25-4.36,3.25,4.36.46-.61.73,4.83-1.18,1.59-3.25-4.36-3.25,4.36-1.21-1.62.73-4.83Zm-1.66,11.02l2.14,2.87,3.25-4.36,3.25,4.36,2.12-2.84.73,4.83-2.84,3.81-3.25-4.36-3.25,4.36-2.87-3.84.73-4.83Zm-.83,5.51l2.97,3.98,3.25-4.36,3.25,4.36,2.95-3.95.94,6.24-.63-.85-3.25,4.36-3.25-4.36-3.25,4.36-3.25-4.36-.67.9.95-6.32Zm13.51,7.3l1.09,7.27-1.88-2.52-3.25,4.36-3.25-4.36-3.25,4.36-3.25-4.36-1.92,2.57,1.09-7.27.82-1.1,3.25,4.36,3.25-4.36,3.25,4.36,3.25-4.36.79,1.06Zm-10.54-24.01l-.38-.51.9-6,2.73-3.66,2.69,3.61.91,6.08-.36.48-3.25-4.36-3.25,4.36Z"></path></g></g></g></svg>